<?xml version="1.0" encoding="UTF-8"?>
<svg width="250px" height="250px" viewBox="0 0 250 250" version="1.1" xmlns="http://www.w3.org/2000/svg" xmlns:xlink="http://www.w3.org/1999/xlink">
    <title>bet365_Logo_Full-Colour_250x250px</title>
    <defs>
        <path d="M0,0 L250,0 L250,250 L0,250 L0,0 Z" id="path-1"></path>
    </defs>
    <g id="bet365_Logo_Full-Colour_250x250px" stroke="none" fill="none" xlink:href="#path-1" fill-rule="evenodd">
        <circle id="Oval" fill="#126E51" cx="125" cy="125" r="125"></circle>
        <g id="bet365-Logo/Portrait/Stacked/FC" transform="translate(51.5918, 59.1773)" stroke-width="1">
            <g id="bet365" transform="translate(0, 0.0796)">
                <path d="M126.699302,95.3674522 C126.299472,95.3674522 125.163113,95.44918 123.459064,95.532376 L123.459064,86.9695522 L144.466048,86.9695522 L144.466048,73.4350347 L104.963619,73.4350347 L104.963619,105.805122 C108.28999,104.987844 111.447522,104.417706 114.695591,104.417706 C122.321726,104.417706 126.051842,106.784387 126.051842,111.511387 C126.051842,115.751446 122.483713,118.038356 115.668984,118.038356 C112.344081,118.038356 108.44953,117.46773 103.990226,116.241813 L103.990226,129.127891 C109.82569,130.596545 115.590192,131.486252 121.427614,131.486252 C138.219988,131.486252 146.816579,124.640202 146.816579,113.141539 C146.816579,101.973213 139.762539,95.3674522 126.699302,95.3674522 M73.9766895,118.768866 C70.0821389,118.768866 67.4849562,115.833516 67.4849562,111.109453 C67.4849562,106.290937 70.0821389,103.356077 73.9766895,103.356077 C77.8707506,103.356077 80.5437885,106.378048 80.5437885,111.109453 C80.5437885,115.833516 77.9510103,118.767887 73.9766895,118.768866 M78.8392497,93.1660376 C73.897898,93.1660376 70.1643561,94.0621073 66.7547892,96.6759292 C66.9970363,88.1914075 71.2968002,84.4422052 80.5447673,84.4422052 C85.1694849,84.4422052 89.5490191,85.0974959 94.0900513,86.4819749 L94.0900513,73.5146582 C89.146742,72.4566011 84.3580794,71.9696599 79.8943705,71.9696599 C58.9705819,71.9696599 47.3667005,83.216288 47.3667005,103.198494 C47.3667005,120.72495 58.3192063,131.405846 75.3528488,131.405846 C89.7942025,131.405846 98.9584842,123.25264 98.9584842,111.510751 C98.9584842,100.585651 90.9281148,93.1660376 78.8392497,93.1660376 M31.3071361,101.485978 C38.5290364,99.9331496 42.6643659,95.2888564 42.6643659,88.9307261 C42.6643659,78.5713587 33.8235697,71.9695131 18.4920191,71.9695131 C11.4360213,71.9695131 5.43073984,72.7794504 0.483026063,74.4967133 L0.483026063,87.3778977 C6.07868969,85.6655287 10.6221689,84.6862631 14.1937233,84.6862631 C19.7145106,84.6862631 22.3836333,86.481828 22.3836333,90.3171626 C22.3836333,94.2283524 19.4659014,95.9382745 13.6265225,95.9382745 C11.5153022,95.9382745 9.40555005,95.859483 7.13527862,95.6147889 L7.13527862,108.008543 C9.89298061,107.599414 12.4108824,107.434491 14.5157407,107.434491 C20.1931321,107.434491 23.1191836,109.470834 23.1191836,113.140756 C23.1191836,116.893384 20.2782857,118.689928 14.8426519,118.689928 C10.6216795,118.689928 5.75765109,117.710173 0,115.998293 L0,129.289585 C5.84035768,130.676021 11.5153022,131.485958 17.2778472,131.485958 C34.472009,131.485958 43.4767501,125.213471 43.4767501,114.445954 C43.4767501,107.600882 39.3365268,103.113194 31.3071361,101.485978" id="365" fill="#FFDF1B"></path>
                <path d="M144.749012,31.8970934 L144.749012,19.0531025 L135.226988,19.0531025 L135.226988,2.85239859 L114.770565,9.31770489 L114.770565,19.0531025 L107.50413,19.0531025 L107.50413,31.896604 L114.770565,31.896604 L114.770565,42.5564558 C114.770565,49.6060915 114.855229,54.8900149 118.194814,59.0870073 C120.781719,62.279286 125.209703,64.1267261 130.971758,64.1267261 C135.64933,64.1267261 140.072909,63.6241245 144.49502,62.279286 L144.49502,49.6883087 C142.740564,50.1106507 141.242547,50.2794895 140.155126,50.2794895 C136.066289,50.2794895 135.226988,47.7610983 135.226988,42.3876169 L135.226988,31.8970934 L144.749012,31.8970934 Z M86.3756798,37.1777379 L75.6057157,37.1777379 L75.6057157,35.9234362 C75.6057157,30.8851856 77.4394529,28.0330317 81.0315616,28.0330317 C84.5370486,28.0330317 86.3756798,30.8846962 86.3756798,35.841219 L86.3756798,37.1777379 Z M80.4491898,17.8796967 C64.9996966,17.8796967 55.732154,26.5232694 55.732154,40.9616868 C55.732154,55.7328881 65.1680461,64.1273623 82.7018432,64.1273623 C90.3005724,64.1273623 96.8128599,63.0326011 101.568734,61.1049013 L101.568734,49.940001 C96.7306427,51.7879305 91.7183297,52.7109165 86.8782813,52.7109165 C79.9470776,52.7109165 76.2717729,50.4440708 75.7716182,45.6612808 L104.244708,45.6612808 L104.244708,42.8081481 C104.244708,25.8528077 97.567007,17.8796967 80.4491898,17.8796967 L80.4491898,17.8796967 Z M25.1700624,50.3624408 C21.4962258,50.3624408 20.0770003,47.2572733 20.0770003,40.8741842 L20.0760215,40.8741842 C20.0760215,34.4969678 21.4962258,31.3932684 25.1710411,31.3932684 C28.8438989,31.3932684 30.3472992,34.4979465 30.3472992,40.8741842 C30.3472992,47.2572733 28.7616817,50.3624408 25.1700624,50.3624408 M33.0198476,18.4646133 C27.5935123,18.4646133 23.5854237,20.3105853 20.6608403,24.257011 L20.6608403,0 L0.11975327,0 L0.11975327,62.9534181 L19.2425936,62.9534181 L19.2425936,55.6527263 C21.9122057,61.022782 26.590756,63.5426414 33.5214704,63.5426414 C44.8777215,63.5426414 51.7242611,55.2313631 51.7242611,41.295058 C51.7242611,26.6882911 44.9614069,18.4646133 33.0198476,18.4646133" id="bet" fill="#FFFFFF"></path>
            </g>
        </g>
    </g>
</svg>